# xmcd
#
# Track frame offsets: 
#        150
#        13905
#        33955
#        44743
#        56773
#        69103
#        83598
#        93963
#        108178
#        118113
#
# Disc length: 1759 seconds
#
# Revision: 0
# Processed by: cddbd v1.4PL0 Copyright (c) Steve Scherf et al.
# Submitted via: ExactAudioCopy v0.95a3
#
DISCID=7a06dd0a
DTITLE=George Strait - Merry Christmas Strait to You
DYEAR=1986
DGENRE=Country
TTITLE0=White Christmas
TTITLE1=There`s a New Kid In Town
TTITLE2=Winter Wonderland
TTITLE3=Merry Christmas Strait To You
TTITLE4=Away in  Manger
TTITLE5=For Christ`s Sake, It`s Christmas
TTITLE6=Frosty The Snowman
TTITLE7=When Its Christmas Time In Texas
TTITLE8=Santa Claus is Comming to Town
TTITLE9=What a Merry Christmas This Could Be
EXTD=
EXTT0=
EXTT1=
EXTT2=
EXTT3=
EXTT4=
EXTT5=
EXTT6=
EXTT7=
EXTT8=
EXTT9=
PLAYORDER=
